<svg width="25" height="24" viewBox="0 0 25 24" fill="none" xmlns="http://www.w3.org/2000/svg">
<g clip-path="url(#clip0_59904_1768)">
<path d="M7.91647 12.0037C7.71756 12.0037 7.5268 12.0827 7.38614 12.2233C7.24549 12.364 7.16647 12.5547 7.16647 12.7537C7.16647 12.9526 7.24549 13.1433 7.38614 13.284C7.5268 13.4246 7.71756 13.5037 7.91647 13.5037H8.41647C8.61539 13.5037 8.80615 13.4246 8.9468 13.284C9.08746 13.1433 9.16647 12.9526 9.16647 12.7537C9.16647 12.5547 9.08746 12.364 8.9468 12.2233C8.80615 12.0827 8.61539 12.0037 8.41647 12.0037H7.91647ZM7.16647 9.25366C7.16647 9.05475 7.24549 8.86398 7.38614 8.72333C7.5268 8.58268 7.71756 8.50366 7.91647 8.50366H8.41647C8.61539 8.50366 8.80615 8.58268 8.9468 8.72333C9.08746 8.86398 9.16647 9.05475 9.16647 9.25366C9.16647 9.45257 9.08746 9.64334 8.9468 9.78399C8.80615 9.92464 8.61539 10.0037 8.41647 10.0037H7.91647C7.71756 10.0037 7.5268 9.92464 7.38614 9.78399C7.24549 9.64334 7.16647 9.45257 7.16647 9.25366ZM7.91647 5.00366C7.71756 5.00366 7.5268 5.08268 7.38614 5.22333C7.24549 5.36398 7.16647 5.55475 7.16647 5.75366C7.16647 5.95257 7.24549 6.14334 7.38614 6.28399C7.5268 6.42464 7.71756 6.50366 7.91647 6.50366H8.41647C8.61539 6.50366 8.80615 6.42464 8.9468 6.28399C9.08746 6.14334 9.16647 5.95257 9.16647 5.75366C9.16647 5.55475 9.08746 5.36398 8.9468 5.22333C8.80615 5.08268 8.61539 5.00366 8.41647 5.00366H7.91647ZM10.6665 12.7537C10.6665 12.5547 10.7455 12.364 10.8861 12.2233C11.0268 12.0827 11.2176 12.0037 11.4165 12.0037H11.9165C12.1154 12.0037 12.3061 12.0827 12.4468 12.2233C12.5875 12.364 12.6665 12.5547 12.6665 12.7537C12.6665 12.9526 12.5875 13.1433 12.4468 13.284C12.3061 13.4246 12.1154 13.5037 11.9165 13.5037H11.4165C11.2176 13.5037 11.0268 13.4246 10.8861 13.284C10.7455 13.1433 10.6665 12.9526 10.6665 12.7537ZM11.4165 8.50366C11.2176 8.50366 11.0268 8.58268 10.8861 8.72333C10.7455 8.86398 10.6665 9.05475 10.6665 9.25366C10.6665 9.45257 10.7455 9.64334 10.8861 9.78399C11.0268 9.92464 11.2176 10.0037 11.4165 10.0037H11.9165C12.1154 10.0037 12.3061 9.92464 12.4468 9.78399C12.5875 9.64334 12.6665 9.45257 12.6665 9.25366C12.6665 9.05475 12.5875 8.86398 12.4468 8.72333C12.3061 8.58268 12.1154 8.50366 11.9165 8.50366H11.4165ZM10.6665 5.75366C10.6665 5.55475 10.7455 5.36398 10.8861 5.22333C11.0268 5.08268 11.2176 5.00366 11.4165 5.00366H11.9165C12.1154 5.00366 12.3061 5.08268 12.4468 5.22333C12.5875 5.36398 12.6665 5.55475 12.6665 5.75366C12.6665 5.95257 12.5875 6.14334 12.4468 6.28399C12.3061 6.42464 12.1154 6.50366 11.9165 6.50366H11.4165C11.2176 6.50366 11.0268 6.42464 10.8861 6.28399C10.7455 6.14334 10.6665 5.95257 10.6665 5.75366ZM14.9165 12.0037C14.7176 12.0037 14.5268 12.0827 14.3861 12.2233C14.2455 12.364 14.1665 12.5547 14.1665 12.7537C14.1665 12.9526 14.2455 13.1433 14.3861 13.284C14.5268 13.4246 14.7176 13.5037 14.9165 13.5037H15.4165C15.6154 13.5037 15.8061 13.4246 15.9468 13.284C16.0875 13.1433 16.1665 12.9526 16.1665 12.7537C16.1665 12.5547 16.0875 12.364 15.9468 12.2233C15.8061 12.0827 15.6154 12.0037 15.4165 12.0037H14.9165ZM14.1665 9.25366C14.1665 9.05475 14.2455 8.86398 14.3861 8.72333C14.5268 8.58268 14.7176 8.50366 14.9165 8.50366H15.4165C15.6154 8.50366 15.8061 8.58268 15.9468 8.72333C16.0875 8.86398 16.1665 9.05475 16.1665 9.25366C16.1665 9.45257 16.0875 9.64334 15.9468 9.78399C15.8061 9.92464 15.6154 10.0037 15.4165 10.0037H14.9165C14.7176 10.0037 14.5268 9.92464 14.3861 9.78399C14.2455 9.64334 14.1665 9.45257 14.1665 9.25366ZM14.9165 5.00366C14.7176 5.00366 14.5268 5.08268 14.3861 5.22333C14.2455 5.36398 14.1665 5.55475 14.1665 5.75366C14.1665 5.95257 14.2455 6.14334 14.3861 6.28399C14.5268 6.42464 14.7176 6.50366 14.9165 6.50366H15.4165C15.6154 6.50366 15.8061 6.42464 15.9468 6.28399C16.0875 6.14334 16.1665 5.95257 16.1665 5.75366C16.1665 5.55475 16.0875 5.36398 15.9468 5.22333C15.8061 5.08268 15.6154 5.00366 15.4165 5.00366H14.9165Z" fill="#3A608F"/>
<path fill-rule="evenodd" clip-rule="evenodd" d="M3.66672 19.9954C3.66672 20.5258 3.87743 21.0345 4.2525 21.4096C4.62758 21.7846 5.13628 21.9954 5.66672 21.9954H9.41672C9.61563 21.9954 9.8064 21.9163 9.94705 21.7757C10.0877 21.635 10.1667 21.4443 10.1667 21.2454V18.9954H13.1667V21.2454C13.1667 21.6594 13.5027 21.9954 13.9167 21.9954H17.6667C17.7587 21.9954 17.8497 21.9894 17.9387 21.9774C17.9932 21.9895 18.0489 21.9955 18.1047 21.9954H22.1667C22.6972 21.9954 23.2059 21.7846 23.5809 21.4096C23.956 21.0345 24.1667 20.5258 24.1667 19.9954V12.3704C24.1667 12.0599 24.0944 11.7536 23.9556 11.4759C23.8167 11.1982 23.6151 10.9567 23.3667 10.7704L22.3667 10.0204C22.2879 9.96126 22.1983 9.91827 22.1029 9.89383C22.0074 9.86938 21.9082 9.86397 21.8107 9.8779C21.7132 9.89183 21.6193 9.92482 21.5346 9.975C21.4498 10.0252 21.3758 10.0916 21.3167 10.1704C21.2576 10.2492 21.2146 10.3388 21.1902 10.4342C21.1657 10.5296 21.1603 10.6289 21.1743 10.7264C21.1882 10.8239 21.2212 10.9177 21.2714 11.0025C21.3215 11.0872 21.3879 11.1613 21.4667 11.2204L22.4667 11.9704C22.5288 12.0169 22.5792 12.0773 22.6139 12.1468C22.6486 12.2162 22.6667 12.2927 22.6667 12.3704V19.9954C22.6667 20.128 22.614 20.2551 22.5203 20.3489C22.4265 20.4427 22.2993 20.4954 22.1667 20.4954H19.6037C19.6447 20.3354 19.6667 20.1684 19.6667 19.9954V2.99536C19.6667 2.46493 19.456 1.95622 19.0809 1.58115C18.7059 1.20608 18.1972 0.995361 17.6667 0.995361H5.66672C5.13628 0.995361 4.62758 1.20608 4.2525 1.58115C3.87743 1.95622 3.66672 2.46493 3.66672 2.99536V19.9954ZM5.66672 20.4954C5.53411 20.4954 5.40693 20.4427 5.31316 20.3489C5.2194 20.2551 5.16672 20.128 5.16672 19.9954V2.99536C5.16672 2.86275 5.2194 2.73558 5.31316 2.64181C5.40693 2.54804 5.53411 2.49536 5.66672 2.49536H17.6667C17.7993 2.49536 17.9265 2.54804 18.0203 2.64181C18.114 2.73558 18.1667 2.86275 18.1667 2.99536V19.9954C18.1667 20.128 18.114 20.2551 18.0203 20.3489C17.9265 20.4427 17.7993 20.4954 17.6667 20.4954H14.6667V18.2454C14.6667 18.0464 14.5877 17.8557 14.447 17.715C14.3064 17.5744 14.1156 17.4954 13.9167 17.4954H9.41672C9.21781 17.4954 9.02704 17.5744 8.88639 17.715C8.74574 17.8557 8.66672 18.0464 8.66672 18.2454V20.4954H5.66672Z" fill="#3A608F"/>
</g>
<defs>
<clipPath id="clip0_59904_1768">
<rect width="24" height="24" fill="white" transform="translate(0.666656)"/>
</clipPath>
</defs>
</svg>
