<svg width="24" height="24" viewBox="0 0 24 24" fill="none" xmlns="http://www.w3.org/2000/svg">
<g id="vuesax/bulk/home-2">
<g id="home-2">
<path id="Vector" opacity="0.4" d="M20.041 6.82L14.281 2.79C12.711 1.69 10.301 1.75 8.79097 2.92L3.78097 6.83C2.78097 7.61 1.99097 9.21 1.99097 10.47V17.37C1.99097 19.92 4.06097 22 6.61097 22H17.391C19.941 22 22.011 19.93 22.011 17.38V10.6C22.011 9.25 21.141 7.59 20.041 6.82Z" fill="#797979"/>
<path id="Vector_2" d="M12.001 18.75C11.591 18.75 11.251 18.41 11.251 18V15C11.251 14.59 11.591 14.25 12.001 14.25C12.411 14.25 12.751 14.59 12.751 15V18C12.751 18.41 12.411 18.75 12.001 18.75Z" fill="#797979"/>
</g>
</g>
</svg>
