<svg width="24" height="24" viewBox="0 0 24 24" fill="none" xmlns="http://www.w3.org/2000/svg">
<g id="vuesax/bulk/home-2">
<g id="home-2">
<path id="Vector" opacity="0.4" d="M20.041 6.82018L14.281 2.79018C12.711 1.69018 10.301 1.75018 8.79097 2.92018L3.78097 6.83018C2.78097 7.61018 1.99097 9.21018 1.99097 10.4702V17.3702C1.99097 19.9202 4.06097 22.0002 6.61097 22.0002H17.391C19.941 22.0002 22.011 19.9302 22.011 17.3802V10.6002C22.011 9.25018 21.141 7.59018 20.041 6.82018Z" fill="#007DFC"/>
<path id="Vector_2" d="M12.001 18.75C11.591 18.75 11.251 18.41 11.251 18V15C11.251 14.59 11.591 14.25 12.001 14.25C12.411 14.25 12.751 14.59 12.751 15V18C12.751 18.41 12.411 18.75 12.001 18.75Z" fill="#007DFC"/>
</g>
</g>
</svg>
