<svg width="232" height="223" viewBox="0 0 232 223" fill="none" xmlns="http://www.w3.org/2000/svg">
<g opacity="0.5" filter="url(#filter0_f_59826_41189)">
<ellipse cx="128.21" cy="190.668" rx="82" ry="11" fill="#BCBCBC"/>
</g>
<g opacity="0.3">
<path d="M98.9079 102.985C123.589 99.0829 140.434 75.9116 136.532 51.2302C132.631 26.5489 109.459 9.7038 84.778 13.6057C60.0966 17.5076 43.2515 40.6788 47.1534 65.3602C51.0553 90.0415 74.2266 106.887 98.9079 102.985Z" fill="#F0F1F6"/>
<path d="M163.866 46.9093C170.543 45.8537 175.1 39.5853 174.044 32.9084C172.988 26.2316 166.72 21.6746 160.043 22.7301C153.366 23.7857 148.809 30.054 149.865 36.7309C150.92 43.4078 157.189 47.9648 163.866 46.9093Z" fill="#F0F1F6"/>
<path d="M98.2367 82.7345L149.412 74.6442L188.325 165.096L179.552 55.1111L45.083 76.3692L47.2495 103.537L92.1134 96.4444L98.2367 82.7345Z" fill="#D3E3FF"/>
<g style="mix-blend-mode:multiply" opacity="0.4">
<path d="M147.391 80.3479L158.347 78.6159L188.325 165.096L147.391 80.3479Z" fill="#2E3E8E"/>
</g>
<path d="M188.325 165.096L154.545 86.5749L149.412 74.6445L98.2367 82.7348L92.1134 96.4447L20.0767 107.833L53.8561 186.355L188.325 165.096Z" fill="#3A608F"/>
<path d="M36.4077 116.314L53.8167 113.562C54.6976 113.423 55.7054 113.995 56.0693 114.84C56.4332 115.685 56.0137 116.483 55.1328 116.623L37.7237 119.375C36.8428 119.514 35.835 118.942 35.4712 118.096C35.1073 117.251 35.5268 116.453 36.4077 116.314Z" fill="white"/>
<path d="M40.7855 126.492L78.7926 120.484C79.6736 120.344 80.6813 120.916 81.0452 121.762C81.4091 122.607 80.9896 123.405 80.1087 123.544L42.1027 129.553C41.2218 129.692 40.214 129.12 39.8501 128.274C39.4862 127.429 39.9057 126.631 40.7866 126.492L40.7855 126.492Z" fill="white"/>
<path d="M45.1645 136.67L83.1716 130.661C84.0525 130.522 85.0603 131.094 85.4242 131.94C85.7881 132.785 85.3686 133.583 84.4877 133.722L46.4805 139.731C45.5996 139.87 44.5918 139.298 44.2279 138.452C43.8641 137.607 44.2835 136.809 45.1645 136.67Z" fill="white"/>
<path d="M102.992 47.0141L103.112 46.2576C103.308 44.675 104.224 43.1116 106.061 41.7384C107.707 40.5309 108.686 39.587 108.993 38.3023C109.341 36.8456 108.657 35.6561 106.865 35.1984C105.837 34.9532 104.613 35.0232 103.769 35.3964L103.513 33.4332C104.619 32.973 106.356 32.9034 107.87 33.2648C111.155 34.0477 112.157 36.4304 111.639 38.6011C111.176 40.5437 109.757 41.6842 107.997 42.9852C106.386 44.1705 105.63 45.3189 105.368 46.7956L105.219 47.5446L102.991 47.0131L102.992 47.0141ZM101.41 50.8628C101.661 49.8062 102.553 49.2336 103.552 49.4725C104.552 49.7114 105.06 50.6166 104.808 51.6734C104.569 52.6729 103.728 53.2878 102.672 53.0352C101.672 52.7963 101.171 51.8623 101.409 50.863L101.41 50.8628Z" fill="#C7CCD5"/>
</g>
<defs>
<filter id="filter0_f_59826_41189" x="25.2096" y="158.668" width="206" height="64" filterUnits="userSpaceOnUse" color-interpolation-filters="sRGB">
<feFlood flood-opacity="0" result="BackgroundImageFix"/>
<feBlend mode="normal" in="SourceGraphic" in2="BackgroundImageFix" result="shape"/>
<feGaussianBlur stdDeviation="10.5" result="effect1_foregroundBlur_59826_41189"/>
</filter>
</defs>
</svg>
